<svg xmlns="http://www.w3.org/2000/svg" width="898" height="864" fill="none"><path fill="#1B2F46" d="M842 322.4c2.4-13 6-26 8.7-39.5 5-25.6 4.8-52.3 1-78.1a307 307 0 0 0-57.5-137.2C762 24.5 713.9-10.3 662 2.8c-54 13.6-99.7 55.3-152.1 74.3-89 32.1-179-26.5-268.5-24.5C164.1 54.1 82.9 82 32 150.6c-20.9 28.1-35.3 66-30.4 103 6 45.2 39.2 79.6 64 113 37.9 51.4 52.2 107.1 20.3 167-21.5 40.6-50.6 76.5-48 126.9 4 80.6 78.4 129.3 139.7 151 62.4 22 133.2 24.4 195.1-.5 55.1-22.2 93.5-70.7 143.6-101.6a227 227 0 0 1 147.3-32.3c53 6.4 109 17.5 160.2-5.4 49-21.8 72.3-80.5 74-136.6 1-28-3-56.4-12.3-82.4-11.4-31.8-36.6-56.6-43.6-90.4-3-13.8-2-26.9.2-39.9Z"/><g clip-path="url(#a)"><path fill="#92A4B9" d="M779.4 150.2H121a13.3 13.3 0 0 0-13.2 13.2v498c0 7.4 5.9 13.3 13.2 13.3h658.4c7.3 0 13.2-6 13.2-13.3v-498c0-7.3-6-13.2-13.2-13.2Z"/><path fill="#fff" d="M776.3 164.5H124v482.9h652.2V164.5Z"/><path fill="#E0E0E0" d="M776.7 638.5h-.4v-474H124v8.9h643.3v465.1H124.5v8.9h652.2v-8.9Z" opacity=".6"/><path fill="#E0E0E0" d="M289.1 190.5h-5.9v416.7h6V190.5Z"/><path fill="#C2DBF6" d="M729.2 221.8H598.4v-31.3H592v31.3H392.6v-31.3h-6.4v31.3h-96.5v-31.3h-6.5v31.3h-82.9v-31.3h-5.9v31.3h-36.2v5.9h36.3v379.5h5.9V227.7h82.8v379.5h6.4V227.7h96.6v379.5h6.4V227.7H592v379.5h6.4V227.7h130.8v-6Z"/><path fill="#CCC" d="m524.9 265-7.4 53.7 59.8.7-5-68.5-47.4 14.2Z" opacity=".7"/><path fill="#DE4E96" d="M572.3 250.9h-58.5v62h58.5v-62Z"/><path fill="#CCC" d="M556.4 246.6h-25.1v8.8h25v-8.8Z"/><path fill="#C2DBF6" d="M276.8 202.8a4.2 4.2 0 0 1-4.3 4.2h-61.9a4.2 4.2 0 0 1 0-8.4h62a4.2 4.2 0 0 1 4.2 4.2Zm95.5 0a4.2 4.2 0 0 1-4.2 4.2h-62a4.2 4.2 0 0 1 0-8.4h62a4.2 4.2 0 0 1 4.2 4.2Zm327.4 0a4.2 4.2 0 0 1-4.2 4.2h-61.9a4.2 4.2 0 0 1 0-8.4h62a4.2 4.2 0 0 1 4.1 4.2Z"/><path fill="#B1C909" d="M703.9 561.5a4.4 4.4 0 0 1-4.5 4.5h-62.3a4.4 4.4 0 1 1 0-9h62.3a4.4 4.4 0 0 1 4.5 4.5Zm0 17.7a4.4 4.4 0 0 1-4.5 4.5h-62.3a4.4 4.4 0 1 1 0-9h62.3a4.4 4.4 0 0 1 4.5 4.5Z"/><path fill="#CCC" d="m314.4 254.2-4.7 34 38.2 2.4v-38.9l-33.5 2.5Z"/><path fill="#959CE4" d="M350.7 246.6h-37.1V286h37.1v-39.4Z"/><path fill="#CCC" d="M483.3 270.7H409v90.6h74.2v-90.6Z" opacity=".7"/><path fill="#CCC" d="m331.3 292.3 5.7 34 37.2-9.3-11.6-37.1-31.3 12.4Z"/><path fill="#DE4E96" d="m363.8 274.1-35.5 11.1L340 323l35.5-11.1-11.8-37.7Z"/><path fill="#666" d="M455.1 263.7c0 6-4.6 10.7-10.4 10.7s-10.4-4.8-10.4-10.7c0-5.9 4.6-10.7 10.4-10.7s10.4 4.8 10.4 10.7Z" opacity=".2"/><path fill="#CCC" d="m413 400.1-7.5 53.6 60.1 3.6v-61L413 400Z"/><path fill="#CCC" d="m513.7 420.7 4.8 54 59.3-10-13.6-59.6-50.5 15.6Z" opacity=".7"/><path fill="#FFBB2E" d="m566.8 396.2-57 13.1 13.9 60.5 57-13.2-14-60.4Z"/><path fill="#CCC" d="m475 378.3-28.8 46 53.3 27.8 25-55.7-49.6-18Z"/><path fill="#959CE4" d="M470.1 388.1h-58.4v62H470v-62Z"/><path fill="#CCC" d="m644.2 471.5-3.3 32.7 36.6.9-1.3-37.1-32 3.5Z"/><path fill="#959CE4" d="m678.7 463-35.5 1.2 1.4 37.7 35.5-1.3-1.4-37.7Z"/><path fill="#EADBEA" d="m669.5 500-3.4 32.8 36.6.8-1.3-37-32 3.4Z" opacity=".7"/><path fill="#45C678" d="m704 491.5-35.6 1.2 1.4 37.8 35.5-1.3-1.4-37.7Z"/><path fill="#CCC" d="m329.4 392.4-20 38 44.4 16.5 14.6-52.3-39-2.2Z" opacity=".7"/><path fill="#B1C909" d="m325 379-16.7 46 43.5 15.7 16.6-46-43.5-15.8Z"/><path fill="#666" d="m339.1 380.4-2.4 6.6 18.7 6.7 2.4-6.6-18.7-6.7Z"/><path fill="#CCC" d="m496.5 584.1-49 26.2-27.2-61.7 49.5-22.7 26.7 58.2Z" opacity=".7"/><path fill="#B1C909" d="M471.5 521.6 422 544.3l28 61.2 49.5-22.7-28-61.2Z"/><path fill="#FFDA8E" d="m431.2 533.4-11.7 23.2 7.3 3.7 11.7-23.2-7.3-3.7Zm64.2 34.7-10.6 21.1 7.2 3.7 10.6-21.1-7.3-3.7Z"/><path fill="#CCC" d="M517.5 379.2c0 6-4.7 10.8-10.5 10.8s-10.4-4.9-10.4-10.8 4.7-10.7 10.4-10.7 10.5 4.8 10.5 10.7ZM346.3 521.4l-7-22-31.1 12.4 5.6 34 20.7-5.2-3.9 13.4 37.5 7.8 5.6-38.4-27.4-2Zm-30.4 31.1-9.7 33 37.5 7.9 5.7-38.4-33.5-2.5Z" opacity=".7"/><path fill="#010202" d="M453.5 297.7a1.8 1.8 0 0 0-2.5.3L441 310.3l-10-13.1a1.8 1.8 0 0 0-2.8 2.1l10.5 13.8-11 13.4a1.8 1.8 0 0 0 1.4 3c.5 0 1-.3 1.3-.7l10.5-12.8 9.6 12.7a1.8 1.8 0 0 0 2.5.4c.8-.6 1-1.7.3-2.5l-10.1-13.4 10.6-13c.6-.7.5-1.8-.2-2.4Z"/><path fill="#CCC" d="m238.7 431.5-15 31 35.8 13.9 11.8-37-32.6-8Z" opacity=".7"/><path fill="#66C2F0" d="m240.2 424-12 37.6 35.4 11.3 12-37.5-35.4-11.4Z"/><path fill="#CCC" d="M241.6 530.2a7.4 7.4 0 0 1 0 10.5 7.4 7.4 0 0 1-10.4-.3 7.4 7.4 0 0 1 0-10.4 7.4 7.4 0 0 1 10.4.2Zm425.1-189.5L628 415.2l60.3 31.4 38.7-74.5-60.2-31.4Zm14.5-67.5 3.9 43.8 48.1-8.1-11-48.3-41 12.6Z" opacity=".7"/><path fill="#FFBB2E" d="M724.3 253.3 678 264l11.3 49 46.2-10.6-11.3-49Z"/><path fill="#CCC" d="m634.6 245.5-26 41.6 48.3 25.2 22.6-50.4-45-16.4Z" opacity=".7"/><path fill="#666" d="M714.2 491.8c0 5.4-4.2 9.7-9.4 9.7a9.6 9.6 0 0 1-9.5-9.7c0-5.4 4.2-9.7 9.5-9.7a9.6 9.6 0 0 1 9.4 9.7Z" opacity=".2"/><path fill="#949494" d="M713.5 491.2a9.7 9.7 0 1 1-19.4 0 9.7 9.7 0 1 1 19.4 0Z"/><path fill="#CCC" d="M712.9 491.2a9.7 9.7 0 1 1-19.4 0 9.7 9.7 0 1 1 19.4 0Z"/><path fill="#666" d="M497.2 533.5H496.8l-.1.2-.2.1v.1h-.1v.2l-.1.1v.8l5.2 13.6c.2.6 1 1 1.6.7.6-.3.9-1 .7-1.5v-.2l-4-10 31.6 19c.6.4 1.4.2 1.7-.4a1.3 1.3 0 0 0-.4-1.7l-31.6-19.1 8.9-1.2c.7 0 1.2-.7 1-1.4v-.1a1.3 1.3 0 0 0-1.4-1l-12.4 1.7h-.2ZM264.9 277.6h.2l.1-.1h.2v-.2l.2-.1v-.2l.2-.1a1.9 1.9 0 0 0 0-.3v-.5l-4.8-13.7a1.2 1.2 0 0 0-2.4.7v.2l3.6 10.1-31-20a1.3 1.3 0 0 0-1.9 1.4c0 .3.2.6.5.8l31.1 20-8.9.9c-.7 0-1.2.7-1.1 1.3v.2c.1.6.7 1 1.3 1l12.5-1.3h.2Z"/><g fill="#CCC" opacity=".7"><path d="M476.5 476.2a4.4 4.4 0 0 1-4.4 4.4h-62.4a4.4 4.4 0 1 1 0-8.9h62.4a4.4 4.4 0 0 1 4.4 4.5Zm0 17.7a4.4 4.4 0 0 1-4.4 4.4h-62.4a4.4 4.4 0 1 1 0-8.9h62.4a4.4 4.4 0 0 1 4.4 4.5Zm-205.2-189a3.7 3.7 0 0 1-3.7 3.8h-52a3.7 3.7 0 1 1 0-7.4h52a3.7 3.7 0 0 1 3.7 3.7Zm0 14.8a3.7 3.7 0 0 1-3.7 3.7h-52a3.7 3.7 0 1 1 0-7.4h52a3.7 3.7 0 0 1 3.7 3.7Zm309.5 16.8a4.4 4.4 0 0 1-4.4 4.5H514a4.4 4.4 0 1 1 0-9h62.4a4.4 4.4 0 0 1 4.4 4.5Zm0 17.7a4.4 4.4 0 0 1-4.4 4.5H514a4.4 4.4 0 1 1 0-9h62.4a4.4 4.4 0 0 1 4.4 4.5ZM366.5 464.7a3.7 3.7 0 0 1-3.7 3.7h-52a3.7 3.7 0 1 1 0-7.4h52a3.7 3.7 0 0 1 3.7 3.7Zm0 14.7a3.7 3.7 0 0 1-3.7 3.7h-52a3.7 3.7 0 1 1 0-7.4h52a3.7 3.7 0 0 1 3.7 3.7Zm0-135.9a3.7 3.7 0 0 1-3.7 3.7h-52a3.7 3.7 0 1 1 0-7.4h52a3.7 3.7 0 0 1 3.7 3.7Zm0 14.8a3.7 3.7 0 0 1-3.7 3.7h-52a3.7 3.7 0 1 1 0-7.4h52a3.7 3.7 0 0 1 3.7 3.7Zm-95.2 137a3.7 3.7 0 0 1-3.7 3.8h-52a3.7 3.7 0 1 1 0-7.5h52a3.7 3.7 0 0 1 3.7 3.8Zm0 14.8a3.7 3.7 0 0 1-3.7 3.7h-52a3.7 3.7 0 1 1 0-7.4h52a3.7 3.7 0 0 1 3.7 3.7Z"/><path d="M177.3 253.4c0 1.3-1 2.4-2.3 2.4h-33.6a2.4 2.4 0 0 1-2.4-2.4 2.4 2.4 0 0 1 2.4-2.4H175a2.4 2.4 0 0 1 2.4 2.4Zm0 9.5c0 1.3-1 2.4-2.3 2.4h-33.6a2.4 2.4 0 0 1-2.4-2.4 2.4 2.4 0 0 1 2.4-2.4H175a2.4 2.4 0 0 1 2.4 2.4Z" opacity=".6"/></g><path fill="#CCC" d="m127.4 293-3.1 5.6-.2 27.3v3.4l21.5 9.7 14-36.3-32.2-9.7Z" opacity=".7"/><path fill="#45C678" d="m129.3 285.6-14.1 36.8 34.7 13.4L164 299l-34.7-13.4Z"/><path fill="#323232" d="M715.2 620.4h-82c-6.5 0-11.7 5.2-11.7 11.7h105.3c0-6.4-5.2-11.7-11.6-11.7Z"/><path fill="#010202" d="M264 627.4a7.3 7.3 0 0 1-7.3 7.2h-37.2a7.3 7.3 0 0 1 0-14.5h37.2a7.3 7.3 0 0 1 7.2 7.3Z"/><path fill="#323232" d="M328.7 637.1h-3.9v1.4h4v-1.4Z"/><path fill="#E470AA" d="M292.3 624.1h-82.6a14.3 14.3 0 0 0-14.3 14.4h130c0-8-25.2-14.4-33.1-14.4Z"/><mask id="b" width="131" height="15" x="195" y="624" maskUnits="userSpaceOnUse" style="mask-type:luminance"><path fill="#fff" d="M292.3 624.1h-82.6a14.3 14.3 0 0 0-14.3 14.4h130c0-8-25.2-14.4-33.1-14.4Z"/></mask><g mask="url(#b)"><path fill="#323232" d="M210.8 617H174v32.8h36.8V617Z"/><path fill="#E994BD" d="M251.8 615.5h-1.7v29h1.7v-29Zm3.6 0h-1.8v29h1.8v-29Z"/><path fill="#fff" d="M327.4 620.9h-26.6v23.3h26.6v-23.3Z" opacity=".2"/></g><path fill="#FFC856" d="M724.8 624.4H623.5a14.3 14.3 0 0 0-14.4 14.4h130c0-8-6.3-14.4-14.3-14.4Z"/><path fill="#C2DBF6" d="M577.9 204.3a5.7 5.7 0 0 1-5.7 5.7h-161a5.7 5.7 0 0 1 0-11.4h161a5.7 5.7 0 0 1 5.6 5.7Z"/><path fill="#CCC" d="m216.1 543 11.9 44.7 40.3-12.2-14.8-40.2-37.4 7.8Z" opacity=".7"/><path fill="#DE4E96" d="m254.6 528.9-38.4 14.2 15 40.7 38.4-14.1-15-40.8Z"/><path fill="#BF8C23" d="M240.9 530.3a7.5 7.5 0 0 1-10.7 10.5 7.5 7.5 0 0 1 10.7-10.5Z"/><path fill="#FFBB2E" d="M240.5 530.6a7.5 7.5 0 0 1-10.7 10.5 7.5 7.5 0 0 1 10.7-10.5Z"/><path fill="#66C2F0" d="m340.6 493.7-35.5 11 11.8 37.8 35.5-11.2-11.8-37.6Z"/><path fill="#FFBB2E" d="m340.5 513.3-5.7 39 36.7 5.5 5.8-39-36.8-5.5Z"/><path fill="#45C678" d="m316.1 544.8-5.7 39 36.8 5.5 5.7-39-36.7-5.5Z"/><path fill="#E16070" d="m478.7 367-25.4 56.5 53.3 24 25.4-56.6-53.3-24Z"/><path fill="#949494" d="M506 389.3a10.7 10.7 0 1 0 0-21.4 10.7 10.7 0 0 0 0 21.4Z"/><path fill="#CCC" d="M516 378.6a10.7 10.7 0 1 1-21.4 0 10.7 10.7 0 0 1 21.4 0Z"/><path fill="#CCC" d="M276.7 349.1h-51.1v62.5h51v-62.5Z" opacity=".7"/><path fill="#92A4B9" d="m582.6 503.5-7.5-10-6-22.1s-6.7-22.4-10-29.5a35.4 35.4 0 0 0-1.5-3l3.5.7c3.6.5 7 5.8 12.9 8.1 7 2.8 11.3 1.7 14.6 3.2 3.2 1.5 4.1 4.8 7.7 10.7 4.5 7.5 9.2 9 11.6 12.6.9 1.5 1.6 6.7 1.6 6.7-.1 1.7.2 4 .4 5.2l1.9 9.2-22.3 12.7-6.9-4.5ZM770.3 864l-64.7-180.3-11.6 1.8.1-1.8-4.8.5a1158 1158 0 0 0-15.5-44c-3.4-8.5-3.4-27.4-2.4-36.4 1.8-16.6 7.8-49.6 12-65.8 2.4-9.1 8.5-27 11.4-36 3.3-10.2 1.5-13.9-.9-17.7-4.3-7-21-13-28.2-17.1a821 821 0 0 1-15.7-9.5s-26.6-26.4-34.8-34c-2-1.7-6.1-5-8.6-5.7-3.8-1.2-12 0-16-.8-2.2-.5-6.6-2.3-8.8-2.6-3.3-.4-10.8 1.5-14 1.6-9 .4-35-1.6-35-1.6s-7.7 1-5.1 9.2c.1.4.8 1.1 1.5 1.7l-.5.4c-2.1 2.6-4 9-4.3 12.6-.6 4.9 1.7 14.7 1.5 19.6-.2 3.2-1.8 9.8-.8 12.8 4.4 13 12 32.7 15.6 43.7 2.3 7.1 4.4 19.6 8 28.8.4 1 3.6 1.6 3.6 2.7-.1 18 6 36 11.4 46.9 3.7 7.5 15 19 18 26.4 3.7 9.2 11 38.7 19.3 74l-3.6.4 3 6.6-14.3 2.3L618.4 864h151.9Z" opacity=".2"/><path fill="#010202" d="M484.5 403.3c.1-4.7.5 1 1.5 2.2 1 1.2 4.3.3 5.4 0 3-1.1 4.2-2.8 7.3-3.2 4.4-.4 8.6-1.6 12.9-2.6 3-.8 2.5-2.4-.5-1.7-5.3 1.3-10.7 1.4-16 2.7-1 .3-2.4.8-3.3 1.6-2.2 2-1.5-.5-2-2.2-.6-2.3-4.4-2-6-1.4-2.9 1.1-4.3 2.7-4.5 6 0 .8 5.1 0 5.2-1.4Z" opacity=".3"/><path fill="#666" d="M664.1 256.8a9.6 9.6 0 0 0 9.5-9.7c0-5.4-4.2-9.7-9.4-9.7a9.6 9.6 0 0 0-9.5 9.7c0 5.4 4.2 9.7 9.4 9.7Z" opacity=".2"/><path fill="#66C2F0" d="m638 235.2-23 51.3 48.3 21.6 23-51.2-48.3-21.7Z"/><path fill="#949494" d="M662 257.8a10.7 10.7 0 1 0 0-21.4 10.7 10.7 0 0 0 0 21.4Z"/><path fill="#CCC" d="M672 247.1a10.7 10.7 0 1 1-21.4 0 10.7 10.7 0 0 1 21.4 0Z"/><path fill="#FFBB2E" d="M273.2 345.4H222v63.4h51.3v-63.4Z"/><path fill="#949494" d="M234 339.6 215 355l4.7 6 19.2-15.3-4.8-6Zm41.4 55L256.3 410l4.7 6 19.2-15.3-4.8-6Z"/><path fill="#B1C909" d="m671.6 339-38.8 74.5 60.2 31.4 38.8-74.5-60.2-31.4Z"/><path fill="#DE4E96" d="m689.4 339.7-31.8 6.2 2 10 31.8-6.3-2-10Zm14.9 89.8-31.8 6.3 2 10 31.7-6.3-2-10Z"/><path fill="#666" d="M719.4 347.8A24 24 0 0 0 696 367l-3.5-4.8a1.8 1.8 0 0 0-2.4-.4c-.8.5-1 1.6-.5 2.4l6.2 8.7h.1l.5.4.1.1a1.7 1.7 0 0 0 .8.2l.5-.1h.1l.2-.1.2-.1 8.5-6.8a1.8 1.8 0 1 0-2.2-2.8l-5.2 4.2a20.4 20.4 0 0 1 20-16.4 20.4 20.4 0 0 1 20.3 20.3 20.4 20.4 0 0 1-20.3 20.4 1.8 1.8 0 0 0 0 3.5 24 24 0 0 0 23.9-23.9 24 24 0 0 0-23.9-23.9Z"/><path fill="#FFBB2E" d="M479.7 265.2h-74.2v90.6h74.2v-90.6Z"/><path fill="#949494" d="M454.4 263a10.7 10.7 0 1 1-21.5 0 10.7 10.7 0 0 1 21.5 0Z"/><path fill="#CCC" d="M453.7 263a10.7 10.7 0 1 1-21.4 0 10.7 10.7 0 0 1 21.4 0Z"/><path fill="#F7B081" d="m519.8 454.5-14.4 10.8s-1.4 14.6 15.7 16.8c17 2.2 49.4-20 66.3-17.4 4.5.7 9.6 12.4 14 11.7 4.5-.6 7.6-16.2 7.6-16.2l-51.8-33-37.4 27.3Z"/><path fill="#FFCAA2" d="m519 484-8.6 8s1.3 15.6 17.8 12.7c15.4-2.6 56.2-27.6 56.2-27.6h9.4l12.8 7.2-7-21.6-34.4-8-46.2 29.2Z"/><path fill="#F7B081" d="M523.6 503.1s-2.4 3.3-2.2 5c.4 3.6 4.2 9.5 10.2 11.9 12 4.8 51.2-4.6 51.2-4.6l29.8-21.2-12-16-17.4-4.5-59.6 29.5Z"/><path fill="#5273BF" d="m503 427.2 178.3 154 9.6-11.8-178.7-152-9.2 9.8Z"/><path fill="#DFA58A" d="m503 427.2-12.6-20.3 21.8 10.5-9.2 9.8Z"/><mask id="c" width="23" height="22" x="490" y="406" maskUnits="userSpaceOnUse" style="mask-type:luminance"><path fill="#fff" d="m503 427.2-12.6-20.3 21.8 10.5-9.2 9.8Z"/></mask><g mask="url(#c)"><path fill="#010202" d="m487.8 405.6 4.3 5.8 3.9-3.7-8.3-2.3"/></g><path fill="#5C85B5" d="M689.9 578c-2.5 3.4-6.2 5-8.3 3.5-2-1.5-1.7-5.5.7-9 2.5-3.3 6.2-4.9 8.3-3.4 2 1.5 1.7 5.5-.7 9Z"/><path fill="#010202" d="M688 576.6c-1.3 1.7-3 2.4-4 1.7s-.9-2.6.3-4.3c1.2-1.6 3-2.4 4-1.7 1 .8.8 2.7-.4 4.3Z"/><path fill="#FFB781" d="M519.5 424s-2.5-1.8-2.7-2.7c-2.6-8.1 5-9.2 5-9.2s26 2 35 1.7c3.3-.2 10.8-2 14-1.7 2.3.3 6.7 2.1 9 2.6 3.9.8 12-.3 15.9.8 2.4.8 6.7 4 8.6 5.8 8.2 7.5 34.8 34 34.8 34l-40.6 23.1s-.6-5.2-1.6-6.6c-2.4-3.6-7-5.2-11.6-12.7-3.5-5.9-4.5-9.2-7.6-10.6-3.4-1.6-7.7-.5-14.6-3.2-6-2.4-9.3-7.7-12.9-8.2-12.3-1.8-30.8-13.2-30.8-13.2Z"/><path fill="#F6A570" d="M517.8 423.5s8.5-12.4 26.9 5.1c7.7 7.4 11.7 24 11.7 24s6.7 30 11.5 39c1.8 3.3 7.6 8.8 11.1 10 7.1 2.5 30-2.3 30-2.3l-5.2 2.3-32 9.6s-12.1-14-12.3-14.4c-.1-.4-9-34-9-34.5 0-.4-32.7-38.8-32.7-38.8Z"/><path fill="#FFB781" d="M529.5 422c-7-2.4-10.3-.2-11.7 1.5-2.2 2.5-4 9-4.4 12.5-.5 5 1.8 14.7 1.5 19.7-.1 3.2-1.7 9.7-.7 12.7 4.4 13.1 12 32.7 15.6 43.7 2.3 7.1 17.6 67.6 23 78.4 3.7 7.5 15 19 18 26.4 11.1 27.7 50 226.3 50 226.3l112.5 6s-59.9-185.8-70.4-211.6c-3.4-8.4-3.4-27.3-2.4-36.3 1.8-16.6 7.8-49.6 12-65.8 2.4-9.1 8.5-27 11.4-36 3.3-10.2 1.4-13.9-1-17.7-4.3-7-21-13-28.1-17.1-4.4-2.5-19.4-11.7-19.4-11.7s-31 13.8-36.4 23.4c-1 1.6-.4 5.4 0 7.2l1.8 9.3S585.4 505 579 504.5c-6.8-.5-12.8-10.8-14.1-13.6-2.6-5.2-5.3-16.5-6.8-22-2-7.5-6.7-22.4-9.9-29.4a32.5 32.5 0 0 0-18.7-17.5Z"/><mask id="d" width="221" height="430" x="513" y="420" maskUnits="userSpaceOnUse" style="mask-type:luminance"><path fill="#fff" d="M529.5 422c-7-2.4-10.3-.2-11.7 1.5-2.2 2.5-4 9-4.4 12.5-.5 5 1.8 14.7 1.5 19.7-.1 3.2-1.7 9.7-.7 12.7 4.4 13.1 12 32.7 15.6 43.7 2.3 7.1 17.6 67.6 23 78.4 3.7 7.5 15 19 18 26.4 11.1 27.7 50 226.3 50 226.3l112.5 6s-59.9-185.8-70.4-211.6c-3.4-8.4-3.4-27.3-2.4-36.3 1.8-16.6 7.8-49.6 12-65.8 2.4-9.1 8.5-27 11.4-36 3.3-10.2 1.4-13.9-1-17.7-4.3-7-21-13-28.1-17.1-4.4-2.5-19.4-11.7-19.4-11.7s-31 13.8-36.4 23.4c-1 1.6-.4 5.4 0 7.2l1.8 9.3S585.4 505 579 504.5c-6.8-.5-12.8-10.8-14.1-13.6-2.6-5.2-5.3-16.5-6.8-22-2-7.5-6.7-22.4-9.9-29.4a32.5 32.5 0 0 0-18.7-17.5Z"/></mask><g mask="url(#d)"><path fill="#F6A570" d="m586.5 691.4 96.7-10.2-.5 9.7-89 16.6-7.2-16.1Z"/></g><path fill="#FFDDC4" d="M515.8 458.4s13.8-10.3 17.2-13.8c1-1 1.9-3.5 1.9-4.9-.2-5.2 0-17.2-11.1-16.2-4.4.4-7 3-8.1 5a22.6 22.6 0 0 0-2.3 9.3c0 5.2 2.4 20.6 2.4 20.6Z"/><path fill="#B1C909" d="M575.2 700.2 613.5 864H763l-68.3-182.8-119.5 19Z"/><path fill="#fff" d="m575.2 700.2 7.2 30.4L704.7 708l-10-26.9-119.5 19Z"/></g><defs><clipPath id="a"><path fill="#fff" d="M107.8 150.2h684.8V864H107.8z"/></clipPath></defs></svg>